<svg width="16" height="19" viewBox="0 0 16 19" fill="none" xmlns="http://www.w3.org/2000/svg">
<path d="M5.47915 0.75C5.47915 0.370304 5.78695 0.0625 6.16665 0.0625H9.83331C10.213 0.0625 10.5208 0.370304 10.5208 0.75V1.4375H14.4166C14.7963 1.4375 15.1041 1.7453 15.1041 2.125C15.1041 2.5047 14.7963 2.8125 14.4166 2.8125H1.58331C1.20362 2.8125 0.895813 2.5047 0.895813 2.125C0.895813 1.7453 1.20362 1.4375 1.58331 1.4375H5.47915V0.75Z" fill="white"/>
<path fill-rule="evenodd" clip-rule="evenodd" d="M2.71988 5.28272C2.74567 5.0506 2.94187 4.875 3.17541 4.875H12.8245C13.0581 4.875 13.2543 5.0506 13.2801 5.28272L13.4635 6.93395C13.7942 9.91035 13.7942 12.9142 13.4635 15.8906L13.4455 16.0532C13.325 17.1372 12.4849 18.0016 11.4047 18.1528C9.1459 18.469 6.85405 18.469 4.59524 18.1528C3.51507 18.0016 2.67492 17.1372 2.55448 16.0532L2.53641 15.8906C2.2057 12.9142 2.2057 9.91035 2.53641 6.93395L2.71988 5.28272ZM6.85415 8.45C6.85415 8.0703 6.54634 7.76249 6.16665 7.76249C5.78695 7.76249 5.47915 8.0703 5.47915 8.45V14.8667C5.47915 15.2464 5.78695 15.5542 6.16665 15.5542C6.54634 15.5542 6.85415 15.2464 6.85415 14.8667L6.85415 8.45ZM10.5208 8.45C10.5208 8.0703 10.213 7.76249 9.83331 7.76249C9.45362 7.76249 9.14581 8.0703 9.14581 8.45V14.8667C9.14581 15.2464 9.45362 15.5542 9.83331 15.5542C10.213 15.5542 10.5208 15.2464 10.5208 14.8667V8.45Z" fill="white"/>
</svg>
